# xmcd
#
# Track frame offsets:
#	150
#	16531
#	32066
#	49065
#	67104
#	85388
#	105362
#	121380
#	146445
#	163416
#	176406
#	194499
#	216582
#	231567
#	248823
#	265066
#	282908
#	297952
#	308528
#
# Disc length: 4334 seconds
# Revision: 1
# Processed by: cddbd v1.5.2PL0 Copyright (c) Steve Scherf et al.
# Submitted via: dBpowerAMP V12.0
#
DISCID=1910ec13
DTITLE=Various Artist - Double Cream The Best of Cream of Country Disc 2
DYEAR=2009
DGENRE=Country
TTITLE0=Brooks and Dunn - Ain't Nothing 'Bout You
TTITLE1=Kenny Chesney - Summertime
TTITLE2=Carrie Underwood - Jesus, Take the Wheel
TTITLE3=Alan Jackson - Where I Come from
TTITLE4=Brad Paisley - The World
TTITLE5=Leann Rimes - How Do I Live
TTITLE6=Tim McGraw - Just to See You Smile
TTITLE7=Toby Keith - I Love This Bar
TTITLE8=Gretchen Wilson - Redneck Woman
TTITLE9=Sawyer Brown - Six Days on the Road
TTITLE10=Lonestar - Amazed
TTITLE11=Lee Ann Womack - I Hope You Dance
TTITLE12=George Strait - I Just Want to Dance With You
TTITLE13=Buddy Jewell - Help Pour Out the Rain (Lacey's Song)
TTITLE14=Martins McBride - A Broken Wing
TTITLE15=Gary Allan - Tough Little Boys
TTITLE16=Jo Dee Messina - Bye-Bye
TTITLE17=The Statler Bros - Flowers on the Wall
TTITLE18=Colin Raye - I Can Still Feel You
EXTD=
EXTT0=
EXTT1=
EXTT2=
EXTT3=
EXTT4=
EXTT5=
EXTT6=
EXTT7=
EXTT8=
EXTT9=
EXTT10=
EXTT11=
EXTT12=
EXTT13=
EXTT14=
EXTT15=
EXTT16=
EXTT17=
EXTT18=
PLAYORDER=
